<svg width="20" height="20" viewBox="0 0 20 20" fill="none" xmlns="http://www.w3.org/2000/svg">
<g clip-path="url(#clip0_3149_3739)">
<path fill-rule="evenodd" clip-rule="evenodd" d="M9.99992 2.50004C5.85778 2.50004 2.49992 5.85791 2.49992 10C2.49992 12.2265 3.47012 14.2265 5.01082 15.6C5.06493 15.0226 5.31863 14.4791 5.73215 14.0656C6.20099 13.5968 6.83688 13.3334 7.49992 13.3334H12.4999C13.163 13.3334 13.7988 13.5968 14.2677 14.0656C14.6812 14.4791 14.9349 15.0226 14.989 15.6C16.5297 14.2265 17.4999 12.2265 17.4999 10C17.4999 5.85791 14.1421 2.50004 9.99992 2.50004ZM13.3333 16.7204V15.8334C13.3333 15.6124 13.2455 15.4004 13.0892 15.2441C12.9329 15.0878 12.7209 15 12.4999 15H7.49992C7.27891 15 7.06694 15.0878 6.91066 15.2441C6.75438 15.4004 6.66659 15.6124 6.66659 15.8334V16.7204C7.67072 17.2195 8.80255 17.5 9.99992 17.5C11.1973 17.5 12.3291 17.2195 13.3333 16.7204ZM0.833252 10C0.833252 4.93743 4.93731 0.833374 9.99992 0.833374C15.0625 0.833374 19.1666 4.93743 19.1666 10C19.1666 15.0627 15.0625 19.1667 9.99992 19.1667C4.93731 19.1667 0.833252 15.0627 0.833252 10ZM9.99992 6.66671C9.07944 6.66671 8.33325 7.4129 8.33325 8.33337C8.33325 9.25385 9.07944 10 9.99992 10C10.9204 10 11.6666 9.25385 11.6666 8.33337C11.6666 7.4129 10.9204 6.66671 9.99992 6.66671ZM6.66659 8.33337C6.66659 6.49243 8.15897 5.00004 9.99992 5.00004C11.8409 5.00004 13.3333 6.49243 13.3333 8.33337C13.3333 10.1743 11.8409 11.6667 9.99992 11.6667C8.15897 11.6667 6.66659 10.1743 6.66659 8.33337Z" fill="#E3E5E8"/>
</g>
<defs>
<clipPath id="clip0_3149_3739">
<rect width="20" height="20" fill="white"/>
</clipPath>
</defs>
</svg>
