<svg width="20" height="20" viewBox="0 0 20 20" fill="none" xmlns="http://www.w3.org/2000/svg">
<path fill-rule="evenodd" clip-rule="evenodd" d="M4.16675 3.33329C3.94573 3.33329 3.73377 3.42109 3.57749 3.57737C3.42121 3.73365 3.33341 3.94561 3.33341 4.16663V15.8333C3.33341 16.0543 3.42121 16.2663 3.57749 16.4225C3.73377 16.5788 3.94573 16.6666 4.16675 16.6666H7.50008C7.96032 16.6666 8.33341 17.0397 8.33341 17.5C8.33341 17.9602 7.96032 18.3333 7.50008 18.3333H4.16675C3.50371 18.3333 2.86782 18.0699 2.39898 17.6011C1.93014 17.1322 1.66675 16.4963 1.66675 15.8333V4.16663C1.66675 3.50358 1.93014 2.8677 2.39898 2.39886C2.86782 1.93002 3.50371 1.66663 4.16675 1.66663H7.50008C7.96032 1.66663 8.33341 2.03972 8.33341 2.49996C8.33341 2.9602 7.96032 3.33329 7.50008 3.33329H4.16675ZM12.7442 5.24404C13.0696 4.9186 13.5972 4.9186 13.9227 5.24404L18.0893 9.4107C18.4148 9.73614 18.4148 10.2638 18.0893 10.5892L13.9227 14.7559C13.5972 15.0813 13.0696 15.0813 12.7442 14.7559C12.4187 14.4304 12.4187 13.9028 12.7442 13.5774L15.4882 10.8333H7.50008C7.03984 10.8333 6.66675 10.4602 6.66675 9.99996C6.66675 9.53972 7.03984 9.16663 7.50008 9.16663H15.4882L12.7442 6.42255C12.4187 6.09711 12.4187 5.56947 12.7442 5.24404Z" fill="#D03E3E"/>
</svg>
