<svg width="14" height="14" viewBox="0 0 14 14" fill="none" xmlns="http://www.w3.org/2000/svg">
<path fill-rule="evenodd" clip-rule="evenodd" d="M5.44405 1.94365C5.30717 2.08053 5.25033 2.2313 5.25033 2.33325V2.91659H8.75033V2.33325C8.75033 2.2313 8.69348 2.08053 8.5566 1.94365C8.41971 1.80677 8.26894 1.74992 8.16699 1.74992H5.83366C5.73171 1.74992 5.58094 1.80677 5.44405 1.94365ZM9.91699 2.91659V2.33325C9.91699 1.85187 9.68217 1.41931 9.38155 1.11869C9.08094 0.818071 8.64838 0.583252 8.16699 0.583252H5.83366C5.35227 0.583252 4.91971 0.818071 4.6191 1.11869C4.31848 1.41931 4.08366 1.85187 4.08366 2.33325V2.91659H1.75033C1.42816 2.91659 1.16699 3.17775 1.16699 3.49992C1.16699 3.82208 1.42816 4.08325 1.75033 4.08325H2.33366V11.6666C2.33366 12.148 2.56848 12.5805 2.8691 12.8811C3.16971 13.1818 3.60227 13.4166 4.08366 13.4166H9.91699C10.3984 13.4166 10.8309 13.1818 11.1316 12.8811C11.4322 12.5805 11.667 12.148 11.667 11.6666V4.08325H12.2503C12.5725 4.08325 12.8337 3.82208 12.8337 3.49992C12.8337 3.17775 12.5725 2.91659 12.2503 2.91659H9.91699ZM3.50033 4.08325V11.6666C3.50033 11.7685 3.55717 11.9193 3.69405 12.0562C3.83094 12.1931 3.98171 12.2499 4.08366 12.2499H9.91699C10.0189 12.2499 10.1697 12.1931 10.3066 12.0562C10.4435 11.9193 10.5003 11.7685 10.5003 11.6666V4.08325H3.50033Z" fill="#D03E3E"/>
</svg>
