<svg width="14" height="14" viewBox="0 0 14 14" fill="none" xmlns="http://www.w3.org/2000/svg">
<path fill-rule="evenodd" clip-rule="evenodd" d="M6.58785 1.3376C6.81565 1.1098 7.185 1.1098 7.4128 1.3376L10.3295 4.25427C10.5573 4.48207 10.5573 4.85142 10.3295 5.07923C10.1017 5.30703 9.73232 5.30703 9.50451 5.07923L7.58366 3.15837V8.75008C7.58366 9.07225 7.32249 9.33341 7.00033 9.33341C6.67816 9.33341 6.41699 9.07225 6.41699 8.75008V3.15837L4.49614 5.07923C4.26833 5.30703 3.89899 5.30703 3.67118 5.07923C3.44337 4.85142 3.44337 4.48207 3.67118 4.25427L6.58785 1.3376ZM1.75033 8.16675C2.07249 8.16675 2.33366 8.42791 2.33366 8.75008V11.0834C2.33366 11.2381 2.39512 11.3865 2.50451 11.4959C2.61391 11.6053 2.76228 11.6667 2.91699 11.6667H11.0837C11.2384 11.6667 11.3867 11.6053 11.4961 11.4959C11.6055 11.3865 11.667 11.2381 11.667 11.0834V8.75008C11.667 8.42791 11.9282 8.16675 12.2503 8.16675C12.5725 8.16675 12.8337 8.42791 12.8337 8.75008V11.0834C12.8337 11.5475 12.6493 11.9927 12.3211 12.3209C11.9929 12.649 11.5478 12.8334 11.0837 12.8334H2.91699C2.45286 12.8334 2.00774 12.649 1.67956 12.3209C1.35137 11.9927 1.16699 11.5475 1.16699 11.0834V8.75008C1.16699 8.42791 1.42816 8.16675 1.75033 8.16675Z" fill="#1E2024"/>
</svg>
