<svg width="158" height="40" viewBox="0 0 158 40" fill="none" xmlns="http://www.w3.org/2000/svg">
<g clip-path="url(#clip0_3139_18691)">
<path d="M20.0498 10.8365C20.1996 10.8291 20.3497 10.8254 20.5 10.8254C20.6503 10.8254 20.8004 10.8291 20.9502 10.8365L21.4268 1.13387C21.1184 1.11872 20.8094 1.11111 20.5 1.11111C20.1906 1.11111 19.8816 1.11872 19.5732 1.13387L20.0498 10.8365Z" fill="url(#paint0_linear_3139_18691)"/>
<path d="M18.2707 11.1004C18.562 11.0274 18.8567 10.9688 19.1538 10.9247L17.7284 1.31556C17.1169 1.40628 16.5101 1.52697 15.9104 1.67719L18.2707 11.1004Z" fill="url(#paint1_linear_3139_18691)"/>
<path d="M21.8462 10.9247C22.1432 10.9688 22.4379 11.0274 22.7292 11.1004L25.0896 1.67719C24.4899 1.52697 23.8831 1.40628 23.2716 1.31556L21.8462 10.9247Z" fill="url(#paint2_linear_3139_18691)"/>
<path d="M16.989 11.5238C17.1278 11.4663 17.268 11.4122 17.4092 11.3617L14.1365 2.21528C13.8458 2.3193 13.5574 2.43054 13.2715 2.54895C12.9856 2.66735 12.7031 2.79264 12.4239 2.92465L16.5773 11.7063C16.7129 11.6421 16.8501 11.5813 16.989 11.5238Z" fill="url(#paint3_linear_3139_18691)"/>
<path d="M23.5908 11.3617C23.732 11.4122 23.8721 11.4663 24.011 11.5238C24.1498 11.5813 24.2871 11.6421 24.4226 11.7063L28.576 2.92465C28.2969 2.79264 28.0143 2.66735 27.7285 2.54895C27.4426 2.43054 27.1542 2.3193 26.8635 2.21528L23.5908 11.3617Z" fill="url(#paint4_linear_3139_18691)"/>
<path d="M15.0347 12.6309C15.2759 12.452 15.5257 12.2851 15.7833 12.1307L10.7892 3.79846C10.2588 4.11631 9.74447 4.46001 9.24786 4.8283L15.0347 12.6309Z" fill="url(#paint5_linear_3139_18691)"/>
<path d="M25.2167 12.1307C25.4742 12.2851 25.7241 12.452 25.9653 12.6309L31.7521 4.82831C31.2555 4.46001 30.7411 4.11632 30.2108 3.79847L25.2167 12.1307Z" fill="url(#paint6_linear_3139_18691)"/>
<path d="M14.0126 13.5126C14.1188 13.4063 14.2276 13.3028 14.3387 13.2021L7.81495 6.00426C7.58619 6.21162 7.36229 6.42477 7.14352 6.64355C6.92474 6.86232 6.71159 7.08622 6.50423 7.31498L13.702 13.8387C13.8027 13.7276 13.9063 13.6188 14.0126 13.5126Z" fill="url(#paint7_linear_3139_18691)"/>
<path d="M26.6613 13.2021C26.7724 13.3028 26.8812 13.4063 26.9874 13.5126C27.0937 13.6188 27.1972 13.7276 27.2979 13.8387L34.4957 7.31498C34.2884 7.08622 34.0752 6.86232 33.8564 6.64355C33.6377 6.42477 33.4138 6.21162 33.185 6.00426L26.6613 13.2021Z" fill="url(#paint8_linear_3139_18691)"/>
<path d="M12.6307 15.2833C12.785 15.0258 12.952 14.7759 13.1309 14.5347L5.32828 8.74789C4.95998 9.2445 4.61629 9.75887 4.29844 10.2892L12.6307 15.2833Z" fill="url(#paint9_linear_3139_18691)"/>
<path d="M27.8691 14.5347C28.048 14.7759 28.2149 15.0258 28.3693 15.2833L36.7015 10.2892C36.3837 9.75887 36.04 9.2445 35.6717 8.74789L27.8691 14.5347Z" fill="url(#paint10_linear_3139_18691)"/>
<path d="M12.0237 16.489C12.0813 16.3502 12.1421 16.2129 12.2062 16.0774L3.42462 11.924C3.29261 12.2031 3.16732 12.4857 3.04892 12.7715C2.93051 13.0574 2.81927 13.3458 2.71525 13.6365L11.8617 16.9092C11.9122 16.768 11.9662 16.6279 12.0237 16.489Z" fill="url(#paint11_linear_3139_18691)"/>
<path d="M28.7937 16.0774C28.8579 16.2129 28.9187 16.3502 28.9762 16.489C29.0337 16.6279 29.0878 16.768 29.1383 16.9092L38.2847 13.6366C38.1807 13.3458 38.0695 13.0574 37.951 12.7716C37.8326 12.4857 37.7073 12.2031 37.5753 11.924L28.7937 16.0774Z" fill="url(#paint12_linear_3139_18691)"/>
<path d="M11.4247 18.6538C11.4687 18.3568 11.5274 18.062 11.6003 17.7707L2.17716 15.4104C2.02694 16.0101 1.90625 16.6168 1.81553 17.2284L11.4247 18.6538Z" fill="url(#paint13_linear_3139_18691)"/>
<path d="M29.3996 17.7707C29.4726 18.062 29.5312 18.3568 29.5753 18.6538L39.1844 17.2284C39.0937 16.6169 38.973 16.0101 38.8228 15.4104L29.3996 17.7707Z" fill="url(#paint14_linear_3139_18691)"/>
<path d="M11.3254 20C11.3254 19.8497 11.3291 19.6996 11.3364 19.5498L1.63384 19.0732C1.61869 19.3816 1.61108 19.6906 1.61108 20C1.61108 22.4805 2.09966 24.9368 3.04892 27.2285C3.99817 29.5202 5.38952 31.6025 7.14352 33.3565C8.8975 35.1105 10.9798 36.5018 13.2715 37.4511C15.5632 38.4003 18.0194 38.8889 20.5 38.8889C22.9805 38.8889 25.4367 38.4003 27.7285 37.4511C30.0201 36.5018 32.1025 35.1105 33.8564 33.3565C35.6104 31.6025 37.0018 29.5202 37.951 27.2285C38.9003 24.9368 39.3889 22.4805 39.3889 20C39.3889 19.6906 39.3813 19.3816 39.3661 19.0732L29.6635 19.5498C29.6709 19.6996 29.6746 19.8497 29.6746 20C29.6746 21.2048 29.4373 22.3979 28.9762 23.511C28.5151 24.6241 27.8394 25.6355 26.9874 26.4874C26.1355 27.3394 25.1241 28.0152 24.011 28.4763C22.8978 28.9373 21.7048 29.1746 20.5 29.1746C19.2952 29.1746 18.1021 28.9373 16.989 28.4763C15.8759 28.0152 14.8645 27.3394 14.0126 26.4874C13.1606 25.6355 12.4848 24.6241 12.0237 23.511C11.5627 22.3979 11.3254 21.2048 11.3254 20Z" fill="url(#paint15_linear_3139_18691)"/>
<path d="M20.5013 10.8251C20.351 10.8251 20.2009 10.8288 20.0511 10.8362L19.8701 7.15153C20.2886 6.97104 20.7177 6.81036 21.1561 6.67075L20.9515 10.8362C20.8017 10.8288 20.6516 10.8251 20.5013 10.8251Z" fill="#2E3DA3"/>
<path d="M22.5321 6.30909L21.8475 10.9244C22.1446 10.9685 22.4393 11.0271 22.7305 11.1001L23.9868 6.08481C23.4939 6.13443 23.0086 6.20965 22.5321 6.30909Z" fill="#2E3DA3"/>
<path d="M25.5054 6.01425L23.5921 11.3614C23.7333 11.4119 23.8734 11.466 24.0123 11.5235C24.1511 11.581 24.2884 11.6418 24.4239 11.706L27.0697 6.11201C26.5563 6.05106 26.0343 6.01799 25.5054 6.01425Z" fill="#2E3DA3"/>
<path d="M28.6563 6.39392L25.218 12.1304C25.4756 12.2848 25.7254 12.4517 25.9666 12.6306L30.2378 6.8716C29.7241 6.68241 29.1963 6.52249 28.6563 6.39392Z" fill="#2E3DA3"/>
<path d="M31.7845 7.55063L26.6626 13.2018C26.7737 13.3025 26.8824 13.406 26.9887 13.5123C27.095 13.6185 27.1985 13.7273 27.2993 13.8384L33.2657 8.43073C32.792 8.10823 32.2974 7.81403 31.7845 7.55063Z" fill="#2E3DA3"/>
<path d="M34.6504 9.50601L27.8704 14.5344C28.0493 14.7756 28.2162 15.0254 28.3706 15.283L35.9082 10.7651C35.516 10.3194 35.0958 9.89873 34.6504 9.50601Z" fill="#2E3DA3"/>
<path d="M37.0096 12.1919L28.795 16.077C28.8592 16.2126 28.92 16.3499 28.9775 16.4887C29.0351 16.6276 29.0891 16.7677 29.1396 16.9089L37.9269 13.7647C37.6548 13.2192 37.348 12.694 37.0096 12.1919Z" fill="#2E3DA3"/>
<path d="M38.6359 15.4572L29.401 17.7704C29.4739 18.0618 29.5326 18.3565 29.5766 18.6535L39.1176 17.2382C38.9957 16.6293 38.8342 16.0348 38.6359 15.4572Z" fill="#2E3DA3"/>
<path d="M39.36 19.0732L29.6649 19.5495C29.6722 19.6993 29.6759 19.8494 29.6759 19.9997C29.6759 21.2045 29.4386 22.3976 28.9775 23.5107C28.5165 24.6238 27.8407 25.6352 26.9887 26.4871C26.1367 27.3391 25.1254 28.0149 24.0123 28.476C22.8992 28.937 21.7061 29.1743 20.5013 29.1743C19.2965 29.1743 18.1034 28.937 16.9903 28.476C15.8772 28.0149 14.8658 27.3391 14.0139 26.4871C13.1619 25.6352 12.4861 24.6238 12.0251 23.5107C11.8426 23.0703 11.6953 22.6175 11.5838 22.1564C12.6208 28.8565 18.4136 33.9855 25.4043 33.9855C33.1285 33.9855 39.3902 27.7239 39.3902 19.9997C39.3902 19.6884 39.38 19.3795 39.36 19.0732Z" fill="#2E3DA3"/>
<path d="M11.5837 17.8432C11.5896 17.8189 11.5956 17.7947 11.6017 17.7704L11.5955 17.7689C11.5915 17.7937 11.5876 17.8184 11.5837 17.8432Z" fill="#2E3DA3"/>
<path d="M11.7689 16.8752L11.863 16.9089C11.9135 16.7677 11.9676 16.6276 12.0251 16.4887C12.0826 16.3499 12.1434 16.2126 12.2076 16.077L12.0045 15.981C11.9164 16.2751 11.8377 16.5733 11.7689 16.8752Z" fill="#2E3DA3"/>
<path d="M12.3055 15.0873L12.632 15.283C12.7864 15.0254 12.9533 14.7756 13.1322 14.5344L12.6758 14.1959C12.5425 14.4878 12.419 14.7851 12.3055 15.0873Z" fill="#2E3DA3"/>
<path d="M13.1196 13.3093L13.7034 13.8384C13.8041 13.7273 13.9076 13.6185 14.0139 13.5123C14.1201 13.406 14.2289 13.3025 14.34 13.2018L13.6415 12.431C13.4572 12.7168 13.2831 13.0097 13.1196 13.3093Z" fill="#2E3DA3"/>
<path d="M14.2464 11.566L15.036 12.6306C15.2772 12.4517 15.527 12.2848 15.7846 12.1304L14.9397 10.7207C14.6979 10.9932 14.4666 11.2752 14.2464 11.566Z" fill="#2E3DA3"/>
<path d="M15.7261 9.90339L16.5786 11.706C16.7142 11.6418 16.8515 11.581 16.9903 11.5235C17.1292 11.466 17.2693 11.4119 17.4105 11.3614L16.61 9.12424C16.3045 9.3716 16.0096 9.6316 15.7261 9.90339Z" fill="#2E3DA3"/>
<path d="M17.5946 8.39572L18.272 11.1001C18.5634 11.0271 18.8581 10.9685 19.1551 10.9244L18.6816 7.73259C18.3086 7.93743 17.946 8.15881 17.5946 8.39572Z" fill="#2E3DA3"/>
<path d="M69.06 11.648V29H65.82V21.416H57.672V29H54.432V11.648H57.672V19.112H65.82V11.648H69.06ZM80.0132 21.428C80.0132 21.044 79.9572 20.684 79.8452 20.348C79.7412 20.004 79.5812 19.704 79.3652 19.448C79.1492 19.192 78.8732 18.992 78.5372 18.848C78.2092 18.696 77.8252 18.62 77.3852 18.62C76.5292 18.62 75.8532 18.864 75.3572 19.352C74.8692 19.84 74.5572 20.532 74.4212 21.428H80.0132ZM74.3612 23.216C74.4092 23.848 74.5212 24.396 74.6972 24.86C74.8732 25.316 75.1052 25.696 75.3932 26C75.6812 26.296 76.0212 26.52 76.4132 26.672C76.8132 26.816 77.2532 26.888 77.7332 26.888C78.2132 26.888 78.6252 26.832 78.9692 26.72C79.3212 26.608 79.6252 26.484 79.8812 26.348C80.1452 26.212 80.3732 26.088 80.5652 25.976C80.7652 25.864 80.9572 25.808 81.1412 25.808C81.3892 25.808 81.5732 25.9 81.6932 26.084L82.5452 27.164C82.2172 27.548 81.8492 27.872 81.4412 28.136C81.0332 28.392 80.6052 28.6 80.1572 28.76C79.7172 28.912 79.2652 29.02 78.8012 29.084C78.3452 29.148 77.9012 29.18 77.4692 29.18C76.6132 29.18 75.8172 29.04 75.0812 28.76C74.3452 28.472 73.7052 28.052 73.1612 27.5C72.6172 26.94 72.1892 26.252 71.8772 25.436C71.5652 24.612 71.4092 23.66 71.4092 22.58C71.4092 21.74 71.5452 20.952 71.8172 20.216C72.0892 19.472 72.4772 18.828 72.9812 18.284C73.4932 17.732 74.1132 17.296 74.8412 16.976C75.5772 16.656 76.4052 16.496 77.3252 16.496C78.1012 16.496 78.8172 16.62 79.4732 16.868C80.1292 17.116 80.6932 17.48 81.1652 17.96C81.6372 18.432 82.0052 19.016 82.2692 19.712C82.5412 20.4 82.6772 21.188 82.6772 22.076C82.6772 22.524 82.6292 22.828 82.5332 22.988C82.4372 23.14 82.2532 23.216 81.9812 23.216H74.3612ZM87.9015 11.168V29H84.9375V11.168H87.9015ZM93.8186 25.808C94.1546 26.216 94.5186 26.504 94.9106 26.672C95.3106 26.84 95.7426 26.924 96.2066 26.924C96.6546 26.924 97.0586 26.84 97.4186 26.672C97.7786 26.504 98.0826 26.248 98.3306 25.904C98.5866 25.56 98.7826 25.128 98.9186 24.608C99.0546 24.08 99.1226 23.46 99.1226 22.748C99.1226 22.028 99.0626 21.42 98.9426 20.924C98.8306 20.42 98.6666 20.012 98.4506 19.7C98.2346 19.388 97.9706 19.16 97.6586 19.016C97.3546 18.872 97.0066 18.8 96.6146 18.8C95.9986 18.8 95.4746 18.932 95.0426 19.196C94.6106 19.452 94.2026 19.816 93.8186 20.288V25.808ZM93.6626 18.368C94.1666 17.8 94.7386 17.34 95.3786 16.988C96.0186 16.636 96.7706 16.46 97.6346 16.46C98.3066 16.46 98.9186 16.6 99.4706 16.88C100.031 17.16 100.511 17.568 100.911 18.104C101.319 18.632 101.631 19.288 101.847 20.072C102.071 20.848 102.183 21.74 102.183 22.748C102.183 23.668 102.059 24.52 101.811 25.304C101.563 26.088 101.207 26.768 100.743 27.344C100.287 27.92 99.7306 28.372 99.0746 28.7C98.4266 29.02 97.6986 29.18 96.8906 29.18C96.2026 29.18 95.6146 29.076 95.1266 28.868C94.6386 28.652 94.2026 28.356 93.8186 27.98V33.02H90.8546V16.688H92.6666C93.0506 16.688 93.3026 16.868 93.4226 17.228L93.6626 18.368ZM120.02 20.324C120.02 21.596 119.808 22.764 119.384 23.828C118.96 24.892 118.364 25.808 117.596 26.576C116.828 27.344 115.904 27.94 114.824 28.364C113.744 28.788 112.544 29 111.224 29H104.612V11.648H111.224C112.544 11.648 113.744 11.864 114.824 12.296C115.904 12.72 116.828 13.316 117.596 14.084C118.364 14.844 118.96 15.756 119.384 16.82C119.808 17.884 120.02 19.052 120.02 20.324ZM116.708 20.324C116.708 19.372 116.58 18.52 116.324 17.768C116.076 17.008 115.712 16.368 115.232 15.848C114.76 15.32 114.184 14.916 113.504 14.636C112.832 14.356 112.072 14.216 111.224 14.216H107.852V26.432H111.224C112.072 26.432 112.832 26.292 113.504 26.012C114.184 25.732 114.76 25.332 115.232 24.812C115.712 24.284 116.076 23.644 116.324 22.892C116.58 22.132 116.708 21.276 116.708 20.324ZM130.169 21.428C130.169 21.044 130.113 20.684 130.001 20.348C129.897 20.004 129.737 19.704 129.521 19.448C129.305 19.192 129.029 18.992 128.693 18.848C128.365 18.696 127.981 18.62 127.541 18.62C126.685 18.62 126.009 18.864 125.513 19.352C125.025 19.84 124.713 20.532 124.577 21.428H130.169ZM124.517 23.216C124.565 23.848 124.677 24.396 124.853 24.86C125.029 25.316 125.261 25.696 125.549 26C125.837 26.296 126.177 26.52 126.569 26.672C126.969 26.816 127.409 26.888 127.889 26.888C128.369 26.888 128.781 26.832 129.125 26.72C129.477 26.608 129.781 26.484 130.037 26.348C130.301 26.212 130.529 26.088 130.721 25.976C130.921 25.864 131.113 25.808 131.297 25.808C131.545 25.808 131.729 25.9 131.849 26.084L132.701 27.164C132.373 27.548 132.005 27.872 131.597 28.136C131.189 28.392 130.761 28.6 130.313 28.76C129.873 28.912 129.421 29.02 128.957 29.084C128.501 29.148 128.057 29.18 127.625 29.18C126.769 29.18 125.973 29.04 125.237 28.76C124.501 28.472 123.861 28.052 123.317 27.5C122.773 26.94 122.345 26.252 122.033 25.436C121.721 24.612 121.565 23.66 121.565 22.58C121.565 21.74 121.701 20.952 121.973 20.216C122.245 19.472 122.633 18.828 123.137 18.284C123.649 17.732 124.269 17.296 124.997 16.976C125.733 16.656 126.561 16.496 127.481 16.496C128.257 16.496 128.973 16.62 129.629 16.868C130.285 17.116 130.849 17.48 131.321 17.96C131.793 18.432 132.161 19.016 132.425 19.712C132.697 20.4 132.833 21.188 132.833 22.076C132.833 22.524 132.785 22.828 132.689 22.988C132.593 23.14 132.409 23.216 132.137 23.216H124.517ZM142.57 19.088C142.49 19.216 142.406 19.308 142.318 19.364C142.23 19.412 142.118 19.436 141.982 19.436C141.838 19.436 141.682 19.396 141.514 19.316C141.354 19.236 141.166 19.148 140.95 19.052C140.734 18.948 140.486 18.856 140.206 18.776C139.934 18.696 139.61 18.656 139.234 18.656C138.65 18.656 138.19 18.78 137.854 19.028C137.526 19.276 137.362 19.6 137.362 20C137.362 20.264 137.446 20.488 137.614 20.672C137.79 20.848 138.018 21.004 138.298 21.14C138.586 21.276 138.91 21.4 139.27 21.512C139.63 21.616 139.994 21.732 140.362 21.86C140.738 21.988 141.106 22.136 141.466 22.304C141.826 22.464 142.146 22.672 142.426 22.928C142.714 23.176 142.942 23.476 143.11 23.828C143.286 24.18 143.374 24.604 143.374 25.1C143.374 25.692 143.266 26.24 143.05 26.744C142.842 27.24 142.53 27.672 142.114 28.04C141.698 28.4 141.182 28.684 140.566 28.892C139.958 29.092 139.254 29.192 138.454 29.192C138.03 29.192 137.614 29.152 137.206 29.072C136.806 29 136.418 28.896 136.042 28.76C135.674 28.624 135.33 28.464 135.01 28.28C134.698 28.096 134.422 27.896 134.182 27.68L134.866 26.552C134.954 26.416 135.058 26.312 135.178 26.24C135.298 26.168 135.45 26.132 135.634 26.132C135.818 26.132 135.99 26.184 136.15 26.288C136.318 26.392 136.51 26.504 136.726 26.624C136.942 26.744 137.194 26.856 137.482 26.96C137.778 27.064 138.15 27.116 138.598 27.116C138.95 27.116 139.25 27.076 139.498 26.996C139.754 26.908 139.962 26.796 140.122 26.66C140.29 26.524 140.41 26.368 140.482 26.192C140.562 26.008 140.602 25.82 140.602 25.628C140.602 25.34 140.514 25.104 140.338 24.92C140.17 24.736 139.942 24.576 139.654 24.44C139.374 24.304 139.05 24.184 138.682 24.08C138.322 23.968 137.95 23.848 137.566 23.72C137.19 23.592 136.818 23.444 136.45 23.276C136.09 23.1 135.766 22.88 135.478 22.616C135.198 22.352 134.97 22.028 134.794 21.644C134.626 21.26 134.542 20.796 134.542 20.252C134.542 19.748 134.642 19.268 134.842 18.812C135.042 18.356 135.334 17.96 135.718 17.624C136.11 17.28 136.594 17.008 137.17 16.808C137.754 16.6 138.426 16.496 139.186 16.496C140.034 16.496 140.806 16.636 141.502 16.916C142.198 17.196 142.778 17.564 143.242 18.02L142.57 19.088ZM148.569 11.168V21.38H149.121C149.321 21.38 149.477 21.356 149.589 21.308C149.709 21.252 149.829 21.144 149.949 20.984L153.009 17.204C153.137 17.036 153.277 16.908 153.429 16.82C153.589 16.732 153.793 16.688 154.041 16.688H156.753L152.925 21.26C152.653 21.62 152.357 21.896 152.037 22.088C152.205 22.208 152.353 22.348 152.481 22.508C152.617 22.668 152.745 22.84 152.865 23.024L156.969 29H154.293C154.061 29 153.861 28.964 153.693 28.892C153.525 28.812 153.385 28.672 153.273 28.472L150.129 23.804C150.017 23.62 149.901 23.5 149.781 23.444C149.661 23.388 149.481 23.36 149.241 23.36H148.569V29H145.605V11.168H148.569Z" fill="#2E3DA3"/>
</g>
<defs>
<linearGradient id="paint0_linear_3139_18691" x1="-3.8667" y1="-3.23334" x2="37.2167" y2="38.8889" gradientUnits="userSpaceOnUse">
<stop offset="0.0363151" stop-color="#2E3DA3"/>
<stop offset="1" stop-color="#96A4FD"/>
</linearGradient>
<linearGradient id="paint1_linear_3139_18691" x1="-3.8667" y1="-3.23334" x2="37.2167" y2="38.8889" gradientUnits="userSpaceOnUse">
<stop offset="0.0363151" stop-color="#2E3DA3"/>
<stop offset="1" stop-color="#96A4FD"/>
</linearGradient>
<linearGradient id="paint2_linear_3139_18691" x1="-3.8667" y1="-3.23334" x2="37.2167" y2="38.8889" gradientUnits="userSpaceOnUse">
<stop offset="0.0363151" stop-color="#2E3DA3"/>
<stop offset="1" stop-color="#96A4FD"/>
</linearGradient>
<linearGradient id="paint3_linear_3139_18691" x1="-3.8667" y1="-3.23334" x2="37.2167" y2="38.8889" gradientUnits="userSpaceOnUse">
<stop offset="0.0363151" stop-color="#2E3DA3"/>
<stop offset="1" stop-color="#96A4FD"/>
</linearGradient>
<linearGradient id="paint4_linear_3139_18691" x1="-3.8667" y1="-3.23334" x2="37.2167" y2="38.8889" gradientUnits="userSpaceOnUse">
<stop offset="0.0363151" stop-color="#2E3DA3"/>
<stop offset="1" stop-color="#96A4FD"/>
</linearGradient>
<linearGradient id="paint5_linear_3139_18691" x1="-3.8667" y1="-3.23334" x2="37.2167" y2="38.8889" gradientUnits="userSpaceOnUse">
<stop offset="0.0363151" stop-color="#2E3DA3"/>
<stop offset="1" stop-color="#96A4FD"/>
</linearGradient>
<linearGradient id="paint6_linear_3139_18691" x1="-3.8667" y1="-3.23334" x2="37.2167" y2="38.8889" gradientUnits="userSpaceOnUse">
<stop offset="0.0363151" stop-color="#2E3DA3"/>
<stop offset="1" stop-color="#96A4FD"/>
</linearGradient>
<linearGradient id="paint7_linear_3139_18691" x1="-3.8667" y1="-3.23334" x2="37.2167" y2="38.8889" gradientUnits="userSpaceOnUse">
<stop offset="0.0363151" stop-color="#2E3DA3"/>
<stop offset="1" stop-color="#96A4FD"/>
</linearGradient>
<linearGradient id="paint8_linear_3139_18691" x1="-3.8667" y1="-3.23334" x2="37.2167" y2="38.8889" gradientUnits="userSpaceOnUse">
<stop offset="0.0363151" stop-color="#2E3DA3"/>
<stop offset="1" stop-color="#96A4FD"/>
</linearGradient>
<linearGradient id="paint9_linear_3139_18691" x1="-3.8667" y1="-3.23334" x2="37.2167" y2="38.8889" gradientUnits="userSpaceOnUse">
<stop offset="0.0363151" stop-color="#2E3DA3"/>
<stop offset="1" stop-color="#96A4FD"/>
</linearGradient>
<linearGradient id="paint10_linear_3139_18691" x1="-3.8667" y1="-3.23334" x2="37.2167" y2="38.8889" gradientUnits="userSpaceOnUse">
<stop offset="0.0363151" stop-color="#2E3DA3"/>
<stop offset="1" stop-color="#96A4FD"/>
</linearGradient>
<linearGradient id="paint11_linear_3139_18691" x1="-3.8667" y1="-3.23334" x2="37.2167" y2="38.8889" gradientUnits="userSpaceOnUse">
<stop offset="0.0363151" stop-color="#2E3DA3"/>
<stop offset="1" stop-color="#96A4FD"/>
</linearGradient>
<linearGradient id="paint12_linear_3139_18691" x1="-3.8667" y1="-3.23334" x2="37.2167" y2="38.8889" gradientUnits="userSpaceOnUse">
<stop offset="0.0363151" stop-color="#2E3DA3"/>
<stop offset="1" stop-color="#96A4FD"/>
</linearGradient>
<linearGradient id="paint13_linear_3139_18691" x1="-3.8667" y1="-3.23334" x2="37.2167" y2="38.8889" gradientUnits="userSpaceOnUse">
<stop offset="0.0363151" stop-color="#2E3DA3"/>
<stop offset="1" stop-color="#96A4FD"/>
</linearGradient>
<linearGradient id="paint14_linear_3139_18691" x1="-3.8667" y1="-3.23334" x2="37.2167" y2="38.8889" gradientUnits="userSpaceOnUse">
<stop offset="0.0363151" stop-color="#2E3DA3"/>
<stop offset="1" stop-color="#96A4FD"/>
</linearGradient>
<linearGradient id="paint15_linear_3139_18691" x1="-3.8667" y1="-3.23334" x2="37.2167" y2="38.8889" gradientUnits="userSpaceOnUse">
<stop offset="0.0363151" stop-color="#2E3DA3"/>
<stop offset="1" stop-color="#96A4FD"/>
</linearGradient>
<clipPath id="clip0_3139_18691">
<rect width="157" height="40" fill="white" transform="translate(0.5)"/>
</clipPath>
</defs>
</svg>
